[h264 @ 0x55860d0fbd40] Reinit context to 1280x720, pix_fmt: yuv420p
Input #0, mov,mp4,m4a,3gp,3g2,mj2, from '/var/www/html/project/media/video/original/FINE_INTERVENTO.mp4':
  Metadata:
    major_brand     : mp42
    minor_version   : 0
    compatible_brands: mp42mp41
    creation_time   : 2024-03-22T21:23:06.000000Z
  Duration: 00:02:02.45, start: 0.000000, bitrate: 5302 kb/s
    Stream #0:0(eng): Video: h264 (Main), 1 reference frame (avc1 / 0x31637661), yuv420p(tv, bt709, left), 1280x720, 5108 kb/s, 25 fps, 25 tbr, 25k tbn, 50 tbc (default)
    Metadata:
      creation_time   : 2024-03-22T21:23:06.000000Z
      handler_name    : ?Mainconcept Video Media Handler
      encoder         : AVC Coding
    Stream #0:1(eng): Audio: aac (LC) (mp4a / 0x6134706D), 48000 Hz, stereo, fltp, 189 kb/s (default)
    Metadata:
      creation_time   : 2024-03-22T21:23:06.000000Z
      handler_name    : #Mainconcept MP4 Sound Media Handler
[h264 @ 0x55860d1018c0] Reinit context to 1280x720, pix_fmt: yuv420p
Input #1, mov,mp4,m4a,3gp,3g2,mj2, from '/var/www/html/project/static/images/templates/Codino.mp4':
  Metadata:
    major_brand     : mp42
    minor_version   : 1
    compatible_brands: isommp41mp42
    creation_time   : 2021-07-11T07:02:58.000000Z
  Duration: 00:00:02.00, start: 0.000000, bitrate: 1007 kb/s
    Stream #1:0(ita): Audio: aac (LC) (mp4a / 0x6134706D), 44100 Hz, stereo, fltp, 102 kb/s (default)
    Metadata:
      creation_time   : 2021-07-11T07:02:58.000000Z
      handler_name    : Core Media Audio
    Stream #1:1(und): Video: h264 (High), 1 reference frame (avc1 / 0x31637661), yuv420p(tv, bt709, progressive, left), 1280x720 [SAR 1:1 DAR 16:9], 813 kb/s, 25 fps, 25 tbr, 25k tbn, 50k tbc (default)
    Metadata:
      creation_time   : 2021-07-11T07:02:58.000000Z
      handler_name    : Core Media Video
[Parsed_scale_0 @ 0x55860d1706c0] w:1280 h:720 flags:'bilinear' interl:0
[Parsed_scale_2 @ 0x55860d1ad2c0] w:1280 h:720 flags:'bilinear' interl:0
Stream mapping:
  Stream #0:0 (h264) -> scale
  Stream #0:1 (aac) -> concat:in0:a0
  Stream #1:0 (aac) -> concat:in1:a0
  Stream #1:1 (h264) -> scale
  concat:out:v0 -> Stream #0:0 (libx264)
  concat:out:a0 -> Stream #0:1 (aac)
Press [q] to stop, [?] for help
[h264 @ 0x55860d174d00] Reinit context to 1280x720, pix_fmt: yuv420p
[h264 @ 0x55860d5bd300] Reinit context to 1280x720, pix_fmt: yuv420p
[Parsed_scale_0 @ 0x55860e3e09c0] w:1280 h:720 flags:'bilinear' interl:0
[Parsed_scale_2 @ 0x55860e3e8c40] w:1280 h:720 flags:'bilinear' interl:0
[graph 0 input from stream 0:0 @ 0x55860e3ebfc0] w:1280 h:720 pixfmt:yuv420p tb:1/25000 fr:25/1 sar:0/1 sws_param:flags=2
[graph 0 input from stream 1:1 @ 0x55860e3ed000] w:1280 h:720 pixfmt:yuv420p tb:1/25000 fr:25/1 sar:1/1 sws_param:flags=2
[graph_0_in_0_1 @ 0x55860e3edfc0] tb:1/48000 samplefmt:fltp samplerate:48000 chlayout:0x3
[graph_0_in_1_0 @ 0x55860e3ef100] tb:1/44100 samplefmt:fltp samplerate:44100 chlayout:0x3
[Parsed_concat_4 @ 0x55860e3ea000] auto-inserting filter 'auto_resampler_0' between the filter 'graph_0_in_1_0' and the filter 'Parsed_concat_4'
[Parsed_scale_0 @ 0x55860e3e09c0] w:1280 h:720 fmt:yuv420p sar:0/1 -> w:1280 h:720 fmt:yuv420p sar:0/1 flags:0x2
[Parsed_setsar_1 @ 0x55860e3e8880] w:1280 h:720 sar:0/1 dar:16/9 -> sar:1/1 dar:16/9
[Parsed_scale_2 @ 0x55860e3e8c40] w:1280 h:720 fmt:yuv420p sar:1/1 -> w:1280 h:720 fmt:yuv420p sar:1/1 flags:0x2
[Parsed_setsar_3 @ 0x55860e3e9180] w:1280 h:720 sar:1/1 dar:16/9 -> sar:1/1 dar:16/9
[auto_resampler_0 @ 0x55860e3f5100] ch:2 chl:stereo fmt:fltp r:44100Hz -> ch:2 chl:stereo fmt:fltp r:48000Hz
[libx264 @ 0x55860d22b3c0] using SAR=1/1
[libx264 @ 0x55860d22b3c0] using cpu capabilities: MMX2 SSE2Fast SSSE3 SSE4.2 AVX FMA3 BMI2 AVX2
[libx264 @ 0x55860d22b3c0] profile High, level 3.1
[libx264 @ 0x55860d22b3c0] 264 - core 155 r2917 0a84d98 - H.264/MPEG-4 AVC codec - Copyleft 2003-2018 - http://www.videolan.org/x264.html - options: cabac=1 ref=1 deblock=1:0:0 analyse=0x3:0x113 me=hex subme=2 psy=1 psy_rd=1.00:0.00 mixed_ref=0 me_range=16 chroma_me=1 trellis=0 8x8dct=1 cqm=0 deadzone=21,11 fast_pskip=1 chroma_qp_offset=0 threads=22 lookahead_threads=5 sliced_threads=0 nr=0 decimate=1 interlaced=0 bluray_compat=0 constrained_intra=0 bframes=3 b_pyramid=2 b_adapt=1 b_bias=0 direct=1 weightb=1 open_gop=0 weightp=1 keyint=250 keyint_min=25 scenecut=40 intra_refresh=0 rc_lookahead=10 rc=crf mbtree=1 crf=18.0 qcomp=0.60 qpmin=0 qpmax=69 qpstep=4 ip_ratio=1.40 aq=1:1.00
Output #0, mp4, to '/var/www/html/project/media/video/watermarks/FINE_INTERVENTO.mp4':
  Metadata:
    major_brand     : mp42
    minor_version   : 0
    compatible_brands: mp42mp41
    encoder         : Lavf58.29.100
    Stream #0:0: Video: h264 (libx264), 1 reference frame (avc1 / 0x31637661), yuv420p(progressive), 1280x720 [SAR 1:1 DAR 16:9], q=-1--1, 25 fps, 12800 tbn, 25 tbc (default)
    Metadata:
      encoder         : Lavc58.54.100 libx264
    Side data:
      cpb: bitrate max/min/avg: 0/0/0 buffer size: 0 vbv_delay: -1
    Stream #0:1: Audio: aac (LC) (mp4a / 0x6134706D), 48000 Hz, stereo, fltp, delay 1024, 128 kb/s (default)
    Metadata:
      encoder         : Lavc58.54.100 aac
[Parsed_concat_4 @ 0x55860e3ea000] EOF on in0:v0, 1 streams left in segment.
[Parsed_concat_4 @ 0x55860e3ea000] EOF on in0:a0, 0 streams left in segment.
[Parsed_concat_4 @ 0x55860e3ea000] Segment finished at pts=122410666
[Parsed_concat_4 @ 0x55860e3ea000] EOF on in1:v0, 1 streams left in segment.
[Parsed_concat_4 @ 0x55860e3ea000] EOF on in1:a0, 0 streams left in segment.
[Parsed_concat_4 @ 0x55860e3ea000] Segment finished at pts=124429353
No more output streams to write to, finishing.
frame= 3110 fps= 87 q=-1.0 Lsize=   79767kB time=00:02:04.43 bitrate=5251.3kbits/s speed= 3.5x    
[AVIOContext @ 0x55860d0fa180] Statistics: 0 seeks, 70 writeouts
video:77725kB audio:1948kB subtitle:0kB other streams:0kB global headers:0kB muxing overhead: 0.117870%
Input file #0 (/var/www/html/project/media/video/original/FINE_INTERVENTO.mp4):
  Input stream #0:0 (video): 3060 packets read (78163128 bytes); 3060 frames decoded; 
  Input stream #0:1 (audio): 5738 packets read (2897690 bytes); 5738 frames decoded (5875712 samples); 
  Total: 8798 packets (81060818 bytes) demuxed
Input file #1 (/var/www/html/project/static/images/templates/Codino.mp4):
  Input stream #1:0 (audio): 89 packets read (26579 bytes); 87 frames decoded (89024 samples); 
  Input stream #1:1 (video): 50 packets read (203365 bytes); 50 frames decoded; 
  Total: 139 packets (229944 bytes) demuxed
Output file #0 (/var/www/html/project/media/video/watermarks/FINE_INTERVENTO.mp4):
  Output stream #0:0 (video): 3110 frames encoded; 3110 packets muxed (79590298 bytes); 
  Output stream #0:1 (audio): 5833 frames encoded (5972609 samples); 5834 packets muxed (1995037 bytes); 
  Total: 8944 packets (81585335 bytes) muxed
[AVIOContext @ 0x55860d1a9f80] Statistics: 2 seeks, 315 writeouts
[libx264 @ 0x55860d22b3c0] frame I:23    Avg QP:15.57  size:123205
[libx264 @ 0x55860d22b3c0] frame P:804   Avg QP:18.45  size: 52551
[libx264 @ 0x55860d22b3c0] frame B:2283  Avg QP:21.37  size: 15114
[libx264 @ 0x55860d22b3c0] consecutive B-frames:  1.5%  1.5%  0.9% 96.1%
[libx264 @ 0x55860d22b3c0] mb I  I16..4: 12.4%  9.2% 78.4%
[libx264 @ 0x55860d22b3c0] mb P  I16..4: 10.7% 13.6%  9.7%  P16..4: 31.5% 16.2% 12.8%  0.0%  0.0%    skip: 5.4%
[libx264 @ 0x55860d22b3c0] mb B  I16..4:  2.7%  2.4%  0.6%  B16..8: 28.7% 10.6%  1.9%  direct:17.6%  skip:35.6%  L0:35.5% L1:42.0% BI:22.6%
[libx264 @ 0x55860d22b3c0] 8x8 transform intra:38.9% inter:14.3%
[libx264 @ 0x55860d22b3c0] coded y,uvDC,uvAC intra: 68.0% 54.1% 10.9% inter: 27.1% 26.7% 1.0%
[libx264 @ 0x55860d22b3c0] i16 v,h,dc,p: 23% 25% 36% 16%
[libx264 @ 0x55860d22b3c0] i8 v,h,dc,ddl,ddr,vr,hd,vl,hu: 21% 30% 24%  4%  4%  3%  5%  4%  5%
[libx264 @ 0x55860d22b3c0] i4 v,h,dc,ddl,ddr,vr,hd,vl,hu: 24% 23% 19%  6%  6%  5%  7%  5%  6%
[libx264 @ 0x55860d22b3c0] i8c dc,h,v,p: 47% 26% 19%  7%
[libx264 @ 0x55860d22b3c0] Weighted P-Frames: Y:10.7% UV:4.7%
[libx264 @ 0x55860d22b3c0] kb/s:5118.30
[aac @ 0x55860d1aa780] Qavg: 538.322
[AVIOContext @ 0x55860d103040] Statistics: 81127380 bytes read, 1 seeks
[AVIOContext @ 0x55860d219840] Statistics: 1530915 bytes read, 42 seeks
